<svg width="20" height="15" viewBox="0 0 20 15" fill="none" xmlns="http://www.w3.org/2000/svg">
<path d="M16.9419 1.25625C15.6473 0.669375 14.263 0.242861 12.8157 0C12.638 0.311339 12.4304 0.730097 12.2872 1.06322C10.7488 0.839056 9.22445 0.839056 7.7143 1.06322C7.57116 0.730097 7.3588 0.311339 7.17947 0C5.73067 0.242861 4.3448 0.670942 3.05016 1.25935C0.438869 5.08252 -0.269009 8.81073 0.0849306 12.486C1.81688 13.7391 3.49534 14.5003 5.14548 14.9985C5.55291 14.4552 5.91628 13.8777 6.22931 13.269C5.63313 13.0495 5.06211 12.7787 4.52256 12.4642C4.6657 12.3615 4.80571 12.254 4.94098 12.1435C8.23183 13.6348 11.8074 13.6348 15.0589 12.1435C15.1958 12.254 15.3358 12.3615 15.4774 12.4642C14.9362 12.7802 14.3637 13.0511 13.7675 13.2706C14.0805 13.8777 14.4423 14.4567 14.8513 15C16.503 14.5019 18.1831 13.7407 19.915 12.486C20.3303 8.22542 19.2056 4.53146 16.9419 1.25625ZM6.67765 10.2257C5.68977 10.2257 4.87963 9.3322 4.87963 8.2441C4.87963 7.15599 5.67247 6.26091 6.67765 6.26091C7.68285 6.26091 8.49297 7.15442 8.47567 8.2441C8.47723 9.3322 7.68285 10.2257 6.67765 10.2257ZM13.3223 10.2257C12.3344 10.2257 11.5243 9.3322 11.5243 8.2441C11.5243 7.15599 12.3171 6.26091 13.3223 6.26091C14.3275 6.26091 15.1376 7.15442 15.1203 8.2441C15.1203 9.3322 14.3275 10.2257 13.3223 10.2257Z" fill="white" fill-opacity="0.8"/>
</svg>
