<svg width="20" height="11" viewBox="0 0 20 11" fill="none" xmlns="http://www.w3.org/2000/svg">
<path d="M16.5964 6.30771C16.2731 5.92271 16.3656 5.75143 16.5964 5.40729C16.6006 5.40336 19.2698 1.92579 19.5448 0.746428L19.5465 0.745643C19.6832 0.315857 19.5465 0 18.8857 0H16.6989C16.1422 0 15.8856 0.271071 15.748 0.574357C15.748 0.574357 14.6347 3.08707 13.0596 4.71586C12.5513 5.1865 12.3163 5.33736 12.0388 5.33736C11.9021 5.33736 11.6896 5.1865 11.6896 4.75671V0.745643C11.6896 0.230214 11.5337 0 11.0729 0H7.63443C7.28525 0 7.07775 0.240429 7.07775 0.464357C7.07775 0.953071 7.86527 1.06543 7.94694 2.44043V5.42379C7.94694 6.0775 7.8211 6.19771 7.54193 6.19771C6.79857 6.19771 4.99434 3.67479 3.92514 0.787286C3.7093 0.227071 3.49845 0.000785657 2.9376 0.000785657H0.750026C0.125838 0.000785657 0 0.271857 0 0.575143C0 1.111 0.743359 3.77536 3.45679 7.29536C5.26518 9.69807 7.81194 11 10.1287 11C11.5212 11 11.6912 10.7109 11.6912 10.2135C11.6912 7.91764 11.5654 7.70079 12.2629 7.70079C12.5863 7.70079 13.143 7.85164 14.443 9.01057C15.9289 10.3848 16.1731 11 17.0048 11H19.1915C19.8149 11 20.1307 10.7109 19.949 10.1404C19.5332 8.94064 16.7231 6.47271 16.5964 6.30771Z" fill="white" fill-opacity="0.8"/>
</svg>
